<svg width="174" height="64" viewBox="0 0 174 64" fill="none" xmlns="http://www.w3.org/2000/svg">
<path fill-rule="evenodd" clip-rule="evenodd" d="M22.102 47.73C21.0127 48.3607 19.3787 48.676 17.2 48.676C14.3907 48.676 11.8107 48.5613 9.46 48.332C7.10933 48.1027 5.21733 47.8733 3.784 47.644L1.72 47.3L0 61.146C2.52267 61.7767 5.418 62.3213 8.686 62.78C11.954 63.296 15.48 63.554 19.264 63.554C26.8893 63.4967 32.3647 61.748 35.69 58.308C39.0153 54.868 40.678 49.966 40.678 43.602C40.678 38.9007 39.7893 35.2887 38.012 32.766C36.2347 30.186 33.3967 28.036 29.498 26.316L22.188 23.134C20.7547 22.5033 19.6367 21.9013 18.834 21.328C18.0313 20.6973 17.63 19.9233 17.63 19.006C17.63 17.3433 18.146 16.2253 19.178 15.652C20.2673 15.0213 21.844 14.706 23.908 14.706C25.8573 14.706 27.864 14.792 29.928 14.964C31.992 15.0787 33.712 15.222 35.088 15.394L37.238 15.652L38.958 1.806L36.636 1.376C35.088 1.032 33.024 0.716666 30.444 0.43C27.864 0.143333 24.9973 0 21.844 0C14.2187 0.0573326 8.74333 1.66267 5.418 4.816C2.15 7.912 0.516 12.6133 0.516 18.92C0.516 23.8507 1.43333 27.606 3.268 30.186C5.10267 32.766 7.71133 34.83 11.094 36.378L20.21 40.592C21.5287 41.1653 22.446 41.7387 22.962 42.312C23.478 42.8853 23.736 43.6593 23.736 44.634C23.736 46.0673 23.1913 47.0993 22.102 47.73ZM52.7519 22.194H46.7356V62.694H63.5056V22.194H57.9481L55.35 26.694L52.7519 22.194ZM95.1671 49.966L87.5991 31.906V62.694H71.2591V12.556L66.5291 0.774H86.9971L99.0371 26.66L111.077 0.774H126.901V62.694H110.561V32.078L102.993 49.966H95.1671ZM155.049 47.73C153.96 48.3607 152.326 48.676 150.147 48.676C147.338 48.676 144.758 48.5613 142.407 48.332C140.057 48.1027 138.165 47.8733 136.731 47.644L134.667 47.3L132.947 61.146C135.47 61.7767 138.365 62.3213 141.633 62.78C144.901 63.296 148.427 63.554 152.211 63.554C159.837 63.4967 165.312 61.748 168.637 58.308C171.963 54.868 173.625 49.966 173.625 43.602C173.625 38.9007 172.737 35.2887 170.959 32.766C169.182 30.186 166.344 28.036 162.445 26.316L155.135 23.134C153.702 22.5033 152.584 21.9013 151.781 21.328C150.979 20.6973 150.577 19.9233 150.577 19.006C150.577 17.3433 151.093 16.2253 152.125 15.652C153.215 15.0213 154.791 14.706 156.855 14.706C158.805 14.706 160.811 14.792 162.875 14.964C164.939 15.0787 166.659 15.222 168.035 15.394L170.185 15.652L171.905 1.806L169.583 1.376C168.035 1.032 165.971 0.716666 163.391 0.43C160.811 0.143333 157.945 0 154.791 0C147.166 0.0573326 141.691 1.66267 138.365 4.816C135.097 7.912 133.463 12.6133 133.463 18.92C133.463 23.8507 134.381 27.606 136.215 30.186C138.05 32.766 140.659 34.83 144.041 36.378L153.157 40.592C154.476 41.1653 155.393 41.7387 155.909 42.312C156.425 42.8853 156.683 43.6593 156.683 44.634C156.683 46.0673 156.139 47.0993 155.049 47.73Z" fill="#163744"/>
<circle cx="55.35" cy="10.194" r="8.5" fill="#163744"/>
</svg>
